<?xml version="1.0" encoding="UTF-8"?>
<svg id="Layer_1" xmlns="http://www.w3.org/2000/svg" version="1.1" viewBox="0 0 240.4 223.89">
  <!-- Generator: Adobe Illustrator 29.4.0, SVG Export Plug-In . SVG Version: 2.1.0 Build 152)  -->
  <defs>
    <style>
      .st0 {
        fill: #694585;
      }
    </style>
  </defs>
  <path class="st0" d="M107.78,203.42c-1.91-4.35-2.95-8.94-4.23-13.47-.47-1.65-1.61-7.71-2.22-9.05-.66-1.44-2.08-2.63-3.15-2.63v-.02c-.38,0-.76.07-1.1.22-1.31.56-1.31,1.73-1,3.59.33,1.94,2.72,6.51,2.93,7.07,1.34,3.68,2.82,7.32,2.6,11.39-.1,1.81.05,3.67.34,5.47.57,3.64.95,7.26.22,10.93-.2,1.01-.17,2.1-.05,3.13.11.89.38,1.81.8,2.59.45.83,1.27,1.26,2.08,1.26.69,0,1.39-.31,1.88-.94.53-.69.97-1.61,1.07-2.46.41-3.77.86-7.55.94-11.34.04-1.91-.35-3.99-1.11-5.74h0Z"/>
  <path class="st0" d="M64.65,178.47c1.32-3.18,1.34-6.37.81-9.64-.25-1.54-.67-3.08-.87-4.63-.16-1.16-.44-2.48-.03-3.48.91-2.26,1.03-4.57,1.16-6.91.06-.96.34-1.88,1.19-2.35.13-.07.28-.12.43-.16h-.01c.45-.12.97-.11,1.36.02.37.12.86.84.81,1.2-.37,2.43-.68,4.9-1.38,7.24-.48,1.58-.52,3.04-.25,4.61.53,3.09,1.02,6.2,1.38,9.31.19,1.57.54,3.05,1.01,4.56.85,2.73,1.46,5.56,1.99,8.39.24,1.26.06,2.59.08,3.42-.49,1.82-1.63,2.95-2.91,3.27-1.13.28-2.35-.06-3.32-1.11-.93-1.01-1.6-2.41-2-3.75-1.02-3.36-.79-6.79.55-10.01v.02Z"/>
  <path class="st0" d="M235.55,21.1c-.13-.5-.38-.97-.66-1.68-.64-.55-1.33-1.39-2.22-1.88-2.11-1.17-4.34-1.97-6.64-1.97v-.02c-1.06,0-2.12.17-3.19.54-1.78.62-3.53.92-5.3.92-1.18,0-2.37-.13-3.58-.38-.48-.1-.99-.15-1.49-.15-.54,0-1.09.06-1.59.18-1.69.39-2.2,2.64-.85,3.71.57.45,1.47.95,2.13.95.11,0,.22-.02.32-.05.93-.32,1.86-.41,2.79-.41,1,0,2.01.1,3.01.1.53,0,1.07-.03,1.6-.11.3-.05.62-.07.94-.07.47,0,.95.06,1.38.18,2.38.66,4.83,1.09,7,2.49,1.05.68,2.42,1.04,3.68,1.14h.2c1.71,0,2.91-1.77,2.47-3.49h0Z"/>
  <path class="st0" d="M21.31,187.99c.05-.41-.3-1.1-.67-1.29-.52-.27-1.42-.57-1.82-.28s-.86.85-1.1,1.3c-1.51,2.76-3.06,5.51-4.44,8.34-.87,1.78-1.21,3.74-.97,5.76.17,1.42.76,2.51,2.22,2.93.25.07.49.11.74.11,1.09,0,2.16-.66,2.86-1.86.39-.67.76-1.42.89-2.17.23-1.42.57-2.92.33-4.28-.41-2.23.04-4.1,1.18-5.97.46-.75.67-1.7.78-2.59Z"/>
  <path class="st0" d="M205.66,58.93c-.24-1.01-1.6-2.52-2.46-2.68-2.6-.47-5.25-.48-7.94-.03-2.08.34-4.16.67-6.2,1.14-3.61.84-7.28,1.09-10.95,1.18-1.71.04-3.41.08-5.11.15-2.48.1-23.8-10-23.25-12.48.11-.52.75-1.19,1.25-1.3.5-.11,1.02-.14,1.54-.14s1.06.03,1.58.04c1.26.02,2.53.17,3.79.17.44,0,.89-.02,1.32-.07.67-.07,1.33-.11,1.99-.11,2.37,0,4.66.46,6.93,1.21,1.62.53,3.26,1.03,4.9,1.51.63.19,1.27.37,1.92.41h.14c1.02,0,1.96-.8,2.18-1.76.23-1.02-.4-2.07-1.5-2.45-.37-.13-.76-.23-1.15-.27-3.87-.47-7.72-.99-11.62-.99-1.1,0-2.2.04-3.31.14-.99.09-1.99.12-3,.12-1.76,0-3.52-.1-5.27-.22-2.28-.15-3.16-2.2-1.74-3.93.73-.9,1.63-1.78,2.63-2.32,3.8-2.07,7.63-4.12,11.55-5.96,2.14-1,4.43-1.44,6.79-1.44.56,0,1.12.02,1.68.07,5.89.5,11.8.66,17.58,2.14,1.44.37,2.98.42,4.5.42h1.36c2.59,0,6.21-3.87,5.68-5.05s-3.24-2.57-4.83-2.57c-.8,0-1.59.23-2.31.7-1.3.84-2.64.89-4.12.91-4.2.06-6.18.27-8.29.44-2.12.16-4.38.29-5.77.26-1.39-.03-2.19-.15-3.21-.46-1.02-.31-4.32-2.1-6.69-2.1-1.98,0-5.01,1.59-7.59-.78-2.58-2.36.76-8.3-.71-10.13-1.73-2.16-6.05-6.31-8.41-7.79-2.4-1.5-4.85-2.49-7.39-2.49h-.02c-1.7.01-3.45.46-5.23,1.49-.79.46-1.67.77-2.47,1.22-8.5,4.88-42.42-5.05-51.76-2.38-3.75,1.08-6.68,2.88-8.85,6.07-1.18,1.74-2.43,3.43-3.72,5.09-2.39,3.07-5.59,4.49-9.4,4.49h-.22c-1.3-.02-2.6-.33-3.91-.44-2.74-.24-5.49-.53-8.24-.63h-.53c-3.72,0-7.19,1.36-10.34,3.73-.84.63-1.8,1.08-2.79,1.41-3.08,1.01-6.13,3.18-9.48,4.23-.67.21-1.33.33-1.97.33-1.27,0-2.47-.44-3.56-1.41-.49-1.78-.92-3.56-1.49-5.3-.63-1.94-1.84-3.49-3.7-4.41-.72-.36-1.47-.53-2.19-.53-1.21,0-4.64.53-7.25,8.86-2.61,8.33-3.49,49.37-3.49,59.69s1.7,23-.08,32.87c-.91,5.07-.45,8.76-.45,13.46,0,7.2-1.41,13.62,4.31,13.62,2.4,0,4.31-6.35,6.71-9.11,3.34-3.84,9.89-9.07,13.83-9.07s7,10.17,7,14.06.19,7.22.28,8.73,1.17,7.92,3.42,7.92,3.1-3.56,3.1-6.82.84-11.11,1.96-14.75c.49-1.59,1.5-3.05,2.41-4.48,1.4-2.22,2.88-4.39,4.39-6.53,1.06-1.5,2.04-3.13,3.38-4.33,1.56-1.38,2.76-1.99,3.76-1.99,1.38,0,2.37,1.16,3.38,3.06,2.11,3.94,4.22,7.89,4.85,12.41.13.9.35,1.82.72,2.65.36.82.86,1.64,1.48,2.28.62.64,1.38,1.01,2.22,1.01.33,0,.68-.06,1.03-.19,1.22-.44,1.99-1.36,2.06-2.64.06-1.03.03-2.15-.34-3.08-.73-1.81-1.66-3.55-2.63-5.26-1.75-3.08-3.63-6.09-5.36-9.18-.7-1.24-1.5-2.7-.37-4.03.49-.57,1.08-.76,1.71-.76s1.35.2,2,.36c5.2,1.33,9.19,4.39,12.24,8.73.44.63.76,1.4.92,2.15,1.03,4.95,3.49,9.34,5.47,13.91.46,1.06,1.21,2.05,2.02,2.87.83.85,1.86,1.27,2.82,1.27.53,0,1.05-.13,1.5-.39,1.4-.82,1.87-2.18,1.77-3.7-.15-2.31-1.08-4.34-2.6-6.04-.96-1.07-2.01-2.09-3.16-2.96-1.32-1-2.19-2.26-2.78-3.74-1.29-3.22-1.85-6.58-1.68-10.03.13-2.5,1.25-3.83,3.03-3.83.68,0,1.46.19,2.31.59,1.57.73,2.99,1.72,3.94,3.18.99,1.54,1.97,3.12,2.71,4.78.96,2.16,1.7,4.41,2.48,6.64,1.68,4.85,3.53,9.61,6.03,14.11,1.34,2.4,2.58,4.88,3.63,7.42,4.19,10.2,8.18,20.49,12.44,30.66,3.2,7.64,6.24,15.32,8.15,23.41.75,3.19,1.73,6.33,2.71,9.47.39,1.24.88,2.5,1.59,3.58.87,1.32,2.13,1.97,3.55,1.97.65,0,1.33-.14,2.02-.41,1.66-.65,2.45-2.3,2.2-4.58-.2-1.9-1.11-3.48-2.17-5-1.81-2.58-3.56-5.21-5.41-7.75-1.65-2.26-2.78-4.74-3.73-7.34-1.93-5.31-3.87-10.61-5.93-15.87-.76-1.94-1.49-4.12-2.9-5.52-1.39-1.39-2.15-2.88-2.78-4.6-.68-1.85-1.35-3.7-2.05-5.54-2.74-7.24-5.44-14.51-8.27-21.72-1.39-3.54-3.12-6.95-4.59-10.46-1.54-3.67-2.29-7.53-2.24-11.53.03-2.25.35-4.46,1.49-6.46.87-1.53,1.83-2.21,3.24-2.21.41,0,.86.06,1.36.17,2.12.47,3.88,1.64,5.42,3.08,4.68,4.38,8.24,9.45,10.22,15.66,2.07,6.5,4.45,12.9,6.8,19.31.53,1.45,1.42,2.81,2.31,4.09.5.73,1.27,1.34,2.05,1.79.75.43,1.51.62,2.24.62,2.08,0,3.81-1.64,3.86-4.13.04-1.75-.41-3.43-1.39-4.86-1.62-2.38-3.16-4.89-5.14-6.95-2.8-2.91-4.91-6.12-6.2-9.92-.5-1.49-1.24-2.9-1.77-4.38-.48-1.34.21-2.39,1.65-2.46.24-.01.48-.02.72-.02.68,0,1.37.06,2,.25,1.25.37,2.47.9,3.62,1.52,3.18,1.72,5.78,4.12,7.72,7.17,2.29,3.59,5.07,6.68,8.48,9.24.83.62,1.67,1.35,2.21,2.21,3.06,4.9,6.11,9.81,9,14.81,1.51,2.6,2.67,5.4,4.01,8.1.72,1.45,1.81,2.61,3.19,3.41.68.39,1.39.62,2.1.62s1.35-.21,1.99-.68c1.18-.86,1.51-2.16,1.3-3.52-.26-1.72-.95-3.31-2.2-4.55-1.21-1.2-2.43-2.46-3.86-3.34-3.67-2.27-6.46-5.32-8.73-8.93-.98-1.56-2.06-3.05-3.13-4.54-2.4-3.32-4.19-6.95-5.9-10.67-3.29-7.16-6.42-14.4-10.82-21-1.24-1.85-1.32-4.5-1.96-6.77-.68-2.45-.51-4.96.32-7.38.99-2.9,2.35-3.91,5.36-3.91h.22c3.02.05,5.73,1,7.75,3.3,1.47,1.67,3.75,4.57,5.5,7.04.45.64,1,1.23,1.62,1.71.42.33.87.49,1.34.49.41,0,.83-.12,1.24-.37.87-.52,1.34-1.81.89-2.76-.39-.82-.92-1.59-1.47-2.32-2.05-2.73-4.16-5.42-6.21-8.16-.54-.72-.94-1.53-1.51-2.49.67-.41,1.17-.95,1.71-.99.21-.02.42-.03.64-.03.7,0,1.43.1,2.07.33,4.23,1.53,8.2,3.5,11.31,6.89,4.54,4.96,9.44,9.5,15.13,13.13.92.58,1.5,1.36,1.97,2.36,1.36,2.91,3.49,5.24,5.97,7.24,1.22.99,2.54,1.89,4.18,2.08.15.02.31.03.45.03,2.16,0,3.64-1.9,2.83-4.01-.41-1.06-1.17-2.06-1.98-2.89-2.57-2.66-5.54-4.8-8.71-6.71-2.46-1.48-4.86-3.13-7.09-4.94-5.01-4.04-9.81-8.33-14.86-12.32-3.51-2.77-6.28-5.92-7.51-10.31-.65-2.32-.14-6.25,3.41-6.19,1.72.03,3.43.22,5.1.75,4.62,1.46,9.17,3.18,13.44,5.61,2.03,1.16,4.16,1.87,6.36,2.66,2.06.74,3.03,1.22,6.69,3.79,1.68.9,3.55,1.41,6.04,1.59,1.98,0,2.49-.86,2.86-1.34.6-.76.68-1.99-.06-2.94-.63-.81-1.39-1.66-2.28-2.09h-.02c-1.64-.78-3.38-1.46-5.16-1.86-3.92-.88-8.13.02-11.97-1.36-3.84-1.38-7.73-3.52-9.9-6.61-2.17-3.09-1.96-6.32-1.22-8.14.56-1.36,1.6-2.01,2.83-2.3,1.52-.36,3.34-.15,4.83-.12,4.31.59,8.62,1.18,12.9,1.92,2.33.39,4.61.49,6.92-.06l.28-.07c1.23-.29,3.15-.35,5.13-.82,1.98-.47,3.14-2.02,2.9-3.03Z"/>
  <g>
    <polygon class="st0" points="195.15 134.1 195.15 134.1 195.15 134.1 195.15 134.1"/>
    <path class="st0" d="M200.29,138.19c-.84-1.71-2.14-2.98-3.85-3.8-.42-.2-.86-.29-1.29-.29-1.52,0-2.93,1.16-2.97,2.81-.03.99.37,2,.47,2.46,1.39,1.95,2.75,2.93,4.54,3.16.17.02.35.03.51.03,1.04,0,1.93-.44,2.55-1.38.64-.97.53-1.99.04-2.99h0Z"/>
  </g>
  <path class="st0" d="M119.74,146.8c-.29-1.27-.94-2.43-1.79-3.41-.22-.26-.44-.48-.67-.69-.59-.51-1.25-.74-1.89-.74-1.21,0-2.31.87-2.57,2.33-.39,2.18.98,4.96,2.93,5.95.47.24.96.35,1.42.35,1.48,0,2.75-1.14,2.7-2.84,0-.32-.06-.64-.13-.95Z"/>
  <path class="st0" d="M167.39,137.48c-.29-1.27-.96-1.71-2.35-2.18-1.55-.53-4.22-.77-4.22,1.16s.62,3.47,2.57,4.46c.47.24.96.35,1.42.35,1.48,0,2.75-1.14,2.7-2.84,0-.32-.06-.64-.13-.95h.01Z"/>
  <path class="st0" d="M17.83,156.83c1.03-.8,1.14-1.59.98-3.05-.18-1.63-1.09-4.15-2.84-3.33s-2.88,2.03-2.95,4.22c-.02.53.09,1.02.28,1.43.63,1.34,2.2,2.01,3.72,1.24.29-.14.55-.33.81-.52h0Z"/>
  <path class="st0" d="M172.49,112.92c-1.02-3.23-6.09-5.26-7.15-4.59-.97.61-.9,1.85-.56,2.76.72,1.92,1.8,4.08,4.44,4.93.39.13.78.2,1.15.2.63,0,1.23-.21,1.74-.75.7-.74.67-1.62.38-2.55h0Z"/>
  <path class="st0" d="M91.13,152.13c-.22-1.01-1.44-1.83-2.37-1.83h0c-.12,0-.23.02-.33.05-1.11.28-1.74,1.09-1.96,2.18-.35,1.73.16,3.32.85,4.84.32.31.55.71.88.81.54.16,1.17.4,1.7.4.17,0,.33-.02.47-.08.57-.24,1.19-1.14,1.21-1.77.04-1.53-.13-3.1-.45-4.6h0Z"/>
  <path class="st0" d="M212.11,77.02c-.58-1.19-1.49-2.07-2.68-2.64-.29-.14-.6-.2-.9-.2-1.06,0-2.04.81-2.06,1.95-.02.69.04,1.12.33,1.71s1.91,2.04,3.16,2.2c.12.01.24.02.35.02.72,0,1.34-.31,1.77-.96.44-.67.37-1.38.03-2.08h0Z"/>
</svg>